# xmcd CD Database Entry
#
# Track frame offsets:
# 150
# 13352
# 24977
# 34577
# 44630
# 55655
# 67355
# 83857
# 95332
# 106507
# 121585
#
# Disc length: 1798 seconds
#
# Revision: 1
# Processed by: cddbd v1.4PL0 Copyright (c) Steve Scherf et al.
# Submitted via: tcd 2.0b
#
DISCID=8607040b
DTITLE=JENNI RIVERA
DYEAR=1900
DGENRE=
TTITLE0=Que me entierren con la banda
TTITLE1=Como tu Decidas
TTITLE2=Que un rayo te la parta
TTITLE3=reyna del palenque
TTITLE4=Son habladas
TTITLE5=Ni estando loca
TTITLE6=Te acordaras 
TTITLE7=Yo solo se de amor
TTITLE8=Sinaloa Hermosa princesa
TTITLE9=Rosita Alvirez
TTITLE10=Las Malandrinas
EXTD=
EXTT0=
EXTT1=
EXTT2=
EXTT3=
EXTT4=
EXTT5=
EXTT6=
EXTT7=
EXTT8=
EXTT9=
EXTT10=
PLAYORDER=
